<?xml version="1.0" standalone="no"?>
<!DOCTYPE svg PUBLIC "-//W3C//DTD SVG 20010904//EN"
 "http://www.w3.org/TR/2001/REC-SVG-20010904/DTD/svg10.dtd">
<svg version="1.0" xmlns="http://www.w3.org/2000/svg"
 width="304.000000pt" height="304.000000pt" viewBox="0 0 304.000000 304.000000"
 preserveAspectRatio="xMidYMid meet">
<metadata>
Created by potrace 1.14, written by Peter Selinger 2001-2017
</metadata>
<g transform="translate(0.000000,304.000000) scale(0.100000,-0.100000)"
fill="#000000" stroke="none">
<path d="M1369 2916 c-2 -2 -26 -7 -54 -11 -27 -4 -59 -9 -70 -10 -11 -2 -20
-4 -20 -5 0 -1 -9 -3 -19 -5 -106 -20 -337 -121 -441 -193 -143 -99 -292 -245
-354 -345 -20 -33 -25 -36 -40 -25 -14 11 -14 11 -4 -2 9 -12 4 -28 -23 -75
-18 -33 -38 -59 -44 -57 -7 1 -9 -2 -5 -8 9 -15 -5 -51 -17 -44 -6 4 -8 3 -5
-3 4 -6 -7 -46 -24 -89 -17 -43 -33 -88 -35 -99 -11 -43 -13 -50 -15 -50 -1 0
-3 -9 -5 -20 -1 -11 -5 -31 -9 -45 -3 -14 -9 -50 -12 -80 -3 -30 -11 -58 -17
-62 -7 -5 -7 -8 0 -8 5 0 9 -14 7 -32 -4 -36 -4 -102 0 -160 1 -21 -2 -38 -7
-38 -4 0 -4 -6 2 -13 6 -6 12 -37 15 -67 2 -30 7 -62 10 -70 14 -39 35 -145
31 -152 -3 -4 0 -8 5 -8 6 0 11 -7 11 -15 0 -8 4 -23 9 -33 38 -77 60 -135 55
-144 -4 -7 -2 -8 4 -4 8 5 12 0 12 -13 0 -12 4 -21 8 -21 5 0 15 -12 23 -27
15 -31 61 -105 69 -113 3 -3 23 -27 45 -55 21 -27 60 -72 85 -98 25 -26 46
-52 48 -57 2 -6 8 -10 13 -10 17 0 58 -43 52 -54 -3 -6 -3 -8 2 -4 11 11 47
-11 39 -24 -4 -6 -3 -8 4 -4 6 3 16 0 24 -7 7 -7 30 -23 50 -36 21 -12 38 -27
38 -32 0 -6 4 -8 9 -5 12 8 102 -44 96 -55 -4 -5 0 -6 8 -4 7 3 35 -4 63 -17
27 -12 51 -23 54 -23 3 -1 12 -5 20 -8 12 -5 123 -38 140 -42 3 -1 25 -5 50
-10 25 -5 48 -10 53 -11 4 -1 23 -2 43 -3 25 -1 33 -5 28 -13 -6 -10 -4 -10 7
-2 13 9 25 10 47 4 15 -4 184 0 192 5 5 3 11 1 15 -5 4 -6 12 -7 18 -3 7 4 19
8 27 10 8 1 35 5 60 9 25 5 50 8 55 9 6 0 15 3 20 6 6 3 19 5 30 5 11 -1 22 2
25 6 3 3 19 8 35 10 17 2 32 6 35 9 3 3 34 15 70 28 36 13 75 30 88 37 12 8
28 12 35 8 7 -4 9 -3 4 1 -9 11 93 67 110 61 6 -3 10 0 7 7 -5 14 53 50 67 42
5 -4 6 2 2 11 -5 14 -3 16 12 10 11 -4 16 -4 13 -1 -4 4 10 21 30 38 20 18 39
35 40 40 2 4 8 7 12 7 12 0 46 35 117 118 78 92 93 111 93 117 0 2 13 23 29
47 44 68 101 176 101 194 0 11 5 14 16 10 13 -5 14 -4 6 7 -8 10 -7 20 3 41 8
16 15 35 15 43 0 8 5 11 12 7 6 -4 8 -3 4 4 -6 9 15 116 31 162 3 8 7 35 9 59
5 56 11 88 19 101 3 5 1 10 -5 10 -6 0 -9 4 -6 9 5 8 11 150 6 161 -1 3 -4 25
-6 50 -5 53 -10 92 -20 140 -4 19 -8 47 -8 62 -1 14 -3 25 -5 23 -2 -2 -18 40
-37 93 -98 288 -314 555 -574 713 -30 18 -58 38 -62 43 -4 6 -8 8 -8 4 0 -4
-22 4 -48 17 -171 86 -350 127 -573 131 -92 2 -168 2 -170 0z"/>
</g>
</svg>
